<?xml version="1.0" encoding="UTF-8" standalone="no"?>
<svg
   xmlns:dc="http://purl.org/dc/elements/1.1/"
   xmlns:cc="http://creativecommons.org/ns#"
   xmlns:rdf="http://www.w3.org/1999/02/22-rdf-syntax-ns#"
   xmlns:svg="http://www.w3.org/2000/svg"
   xmlns="http://www.w3.org/2000/svg"
   xmlns:sodipodi="http://sodipodi.sourceforge.net/DTD/sodipodi-0.dtd"
   xmlns:inkscape="http://www.inkscape.org/namespaces/inkscape"
   id="Capa_1"
   enable-background="new 0 0 512 512"
   height="812"
   viewBox="0 0 812 812"
   width="812"
   version="1.1"
   sodipodi:docname="1.svg"
   inkscape:version="1.0.2 (e86c870879, 2021-01-15, custom)">
  <metadata
     id="metadata21">
    <rdf:RDF>
      <cc:Work
         rdf:about="">
        <dc:format>image/svg+xml</dc:format>
        <dc:type
           rdf:resource="http://purl.org/dc/dcmitype/StillImage" />
        <dc:title></dc:title>
      </cc:Work>
    </rdf:RDF>
  </metadata>
  <defs
     id="defs19" />
  <sodipodi:namedview
     pagecolor="#ffffff"
     bordercolor="#666666"
     borderopacity="1"
     objecttolerance="10"
     gridtolerance="10"
     guidetolerance="10"
     inkscape:pageopacity="0"
     inkscape:pageshadow="2"
     inkscape:window-width="1366"
     inkscape:window-height="716"
     id="namedview17"
     showgrid="false"
     fit-margin-top="150"
     fit-margin-left="150"
     fit-margin-right="150"
     fit-margin-bottom="150"
     lock-margins="true"
     inkscape:zoom="1.0288567"
     inkscape:cx="406"
     inkscape:cy="328.63935"
     inkscape:window-x="-8"
     inkscape:window-y="-8"
     inkscape:window-maximized="1"
     inkscape:current-layer="Capa_1" />
  <g
     id="g14"
     transform="translate(150,150)">
    <path
       d="m 474.5,0 h -287 C 166.822,0 150,16.822 150,37.5 V 60 H 37.5 C 16.822,60 0,76.822 0,97.5 v 377 C 0,495.178 16.822,512 37.5,512 h 437 c 20.678,0 37.5,-16.822 37.5,-37.5 V 37.5 C 512,16.822 495.178,0 474.5,0 Z M 37.5,497 C 25.093,497 15,486.906 15,474.5 V 97.5 C 15,85.094 25.093,75 37.5,75 h 195 c 12.407,0 22.5,10.094 22.5,22.5 v 377 c 0,12.406 -10.093,22.5 -22.5,22.5 z M 497,474.5 c 0,12.406 -10.094,22.5 -22.5,22.5 H 262.48 c 4.719,-6.272 7.52,-14.064 7.52,-22.5 V 422 h 204.5 c 4.143,0 7.5,-3.357 7.5,-7.5 V 241 c 0,-4.143 -3.357,-7.5 -7.5,-7.5 -4.143,0 -7.5,3.357 -7.5,7.5 V 407 H 270 V 97.5 C 270,76.822 253.178,60 232.5,60 H 195 V 45 h 272 v 166 c 0,4.143 3.357,7.5 7.5,7.5 4.143,0 7.5,-3.357 7.5,-7.5 V 37.5 c 0,-4.143 -3.357,-7.5 -7.5,-7.5 h -287 c -4.142,0 -7.5,3.357 -7.5,7.5 V 60 H 165 V 37.5 C 165,25.094 175.093,15 187.5,15 h 287 c 12.406,0 22.5,10.094 22.5,22.5 z"
       id="path2" />
    <path
       d="m 354.5,437 h -47 c -12.406,0 -22.5,10.094 -22.5,22.5 0,12.406 10.094,22.5 22.5,22.5 h 47 C 366.906,482 377,471.906 377,459.5 377,447.094 366.906,437 354.5,437 Z m 0,30 h -47 c -4.136,0 -7.5,-3.364 -7.5,-7.5 0,-4.136 3.364,-7.5 7.5,-7.5 h 47 c 4.136,0 7.5,3.364 7.5,7.5 0,4.136 -3.364,7.5 -7.5,7.5 z"
       id="path4" />
    <path
       d="m 135,120 c -16.542,0 -30,13.458 -30,30 0,16.542 13.458,30 30,30 16.542,0 30,-13.458 30,-30 0,-16.542 -13.458,-30 -30,-30 z m 0,45 c -8.271,0 -15,-6.729 -15,-15 0,-8.271 6.729,-15 15,-15 8.271,0 15,6.729 15,15 0,8.271 -6.729,15 -15,15 z"
       id="path6" />
    <path
       d="m 135,300 c -12.407,0 -22.5,10.094 -22.5,22.5 0,12.406 10.093,22.5 22.5,22.5 12.407,0 22.5,-10.094 22.5,-22.5 0,-12.406 -10.093,-22.5 -22.5,-22.5 z m 0,30 c -4.136,0 -7.5,-3.364 -7.5,-7.5 0,-4.136 3.364,-7.5 7.5,-7.5 4.136,0 7.5,3.364 7.5,7.5 0,4.136 -3.364,7.5 -7.5,7.5 z"
       id="path8" />
    <path
       d="m 135,195 c -16.542,0 -30,13.458 -30,30 0,16.542 13.458,30 30,30 16.542,0 30,-13.458 30,-30 0,-16.542 -13.458,-30 -30,-30 z m 0,45 c -8.271,0 -15,-6.729 -15,-15 0,-8.271 6.729,-15 15,-15 8.271,0 15,6.729 15,15 0,8.271 -6.729,15 -15,15 z"
       id="path10" />
    <path
       d="m 135,90 c -33.084,0 -60,26.916 -60,60 v 75 c 0,33.084 26.916,60 60,60 33.084,0 60,-26.916 60,-60 v -75 c 0,-33.084 -26.916,-60 -60,-60 z m 45,135 c 0,24.813 -20.187,45 -45,45 -24.813,0 -45,-20.187 -45,-45 v -75 c 0,-24.813 20.187,-45 45,-45 24.813,0 45,20.187 45,45 z"
       id="path12" />
  </g>
</svg>
