<?xml version="1.0" encoding="UTF-8" standalone="no"?>
<svg
   xmlns:dc="http://purl.org/dc/elements/1.1/"
   xmlns:cc="http://creativecommons.org/ns#"
   xmlns:rdf="http://www.w3.org/1999/02/22-rdf-syntax-ns#"
   xmlns:svg="http://www.w3.org/2000/svg"
   xmlns="http://www.w3.org/2000/svg"
   xmlns:sodipodi="http://sodipodi.sourceforge.net/DTD/sodipodi-0.dtd"
   xmlns:inkscape="http://www.inkscape.org/namespaces/inkscape"
   viewBox="0 0 804.00049 804"
   width="804.00049"
   height="804"
   version="1.1"
   id="svg16"
   sodipodi:docname="11.svg"
   inkscape:version="1.0.2 (e86c870879, 2021-01-15, custom)">
  <metadata
     id="metadata22">
    <rdf:RDF>
      <cc:Work
         rdf:about="">
        <dc:format>image/svg+xml</dc:format>
        <dc:type
           rdf:resource="http://purl.org/dc/dcmitype/StillImage" />
        <dc:title></dc:title>
      </cc:Work>
    </rdf:RDF>
  </metadata>
  <defs
     id="defs20" />
  <sodipodi:namedview
     pagecolor="#ffffff"
     bordercolor="#666666"
     borderopacity="1"
     objecttolerance="10"
     gridtolerance="10"
     guidetolerance="10"
     inkscape:pageopacity="0"
     inkscape:pageshadow="2"
     inkscape:window-width="1366"
     inkscape:window-height="716"
     id="namedview18"
     showgrid="false"
     lock-margins="true"
     fit-margin-top="150"
     fit-margin-left="150"
     fit-margin-right="150"
     fit-margin-bottom="150"
     inkscape:zoom="1.0288567"
     inkscape:cx="402.00047"
     inkscape:cy="402"
     inkscape:window-x="-8"
     inkscape:window-y="-8"
     inkscape:window-maximized="1"
     inkscape:current-layer="svg16" />
  <g
     id="_30-technical"
     data-name="30-technical"
     transform="translate(146.00047,146)">
    <g
       id="linear_color"
       data-name="linear color">
      <circle
         cx="276"
         cy="188"
         r="12"
         id="circle2" />
      <circle
         cx="172"
         cy="188"
         r="12"
         id="circle4" />
      <path
         d="m 208,244 h 16 a 12,12 0 0 0 3.2,-23.568 l 7.533,-15.066 a 12,12 0 0 0 -21.466,-10.732 l -16,32 A 12,12 0 0 0 208,244 Z"
         id="path6" />
      <path
         d="m 208,76 h 32 a 12,12 0 0 0 0,-24 h -32 a 12,12 0 0 0 0,24 z"
         id="path8" />
      <path
         d="m 497.474,361.279 -12.754,-1.579 -2.754,-6.649 7.9,-10.134 a 12,12 0 0 0 -0.977,-15.864 l -28.817,-28.817 a 12,12 0 0 0 -15.864,-0.977 l -10.134,7.9 -6.649,-2.754 -1.578,-12.754 a 12,12 0 0 0 -11.91,-10.526 h -40.749 a 12,12 0 0 0 -11.909,10.526 l -1.579,12.757 -6.649,2.754 -10.134,-7.9 a 12,12 0 0 0 -15.864,0.977 l -28.817,28.817 a 12,12 0 0 0 -0.977,15.864 l 7.9,10.134 -2.754,6.649 -12.754,1.578 a 12,12 0 0 0 -10.526,11.909 v 10.628 L 224,432.055 154.272,371.047 179.448,363.494 A 12,12 0 0 0 188,352 v -28.412 c 12.5,5.364 25.1,8.412 36,8.412 20.515,0 47.039,-10.792 67.572,-27.493 18.293,-14.879 30.808,-33.4 36.654,-53.728 C 350.612,244.045 364,210.936 364,192 c 0,-8.432 -2.462,-15.149 -7.317,-19.968 -5.184,-5.143 -11.717,-7.042 -18.928,-7.718 A 43.8,43.8 0 0 0 348,136.114 V 80 A 76.087,76.087 0 0 0 272,4 h -96 a 76.087,76.087 0 0 0 -76,76 v 56.114 a 43.8,43.8 0 0 0 10.245,28.2 C 103.036,164.991 96.5,166.89 91.317,172.032 86.462,176.851 84,183.568 84,192 c 0,18.936 13.388,52.045 35.774,58.779 5.846,20.332 18.361,38.849 36.654,53.728 2.445,1.989 4.977,3.891 7.572,5.7 v 32.86 L 35.352,381.666 A 43.728,43.728 0 0 0 4,423.81 V 496 a 12,12 0 0 0 24,0 v -72.19 a 20.127,20.127 0 0 1 14.248,-19.156 l 84.883,-25.465 88.969,77.842 a 12,12 0 0 0 15.8,0 L 279.255,415.6 a 11.992,11.992 0 0 0 10.4,10.252 l 12.754,1.578 2.754,6.649 -7.9,10.134 a 12,12 0 0 0 0.977,15.864 l 28.817,28.817 a 12,12 0 0 0 15.864,0.977 l 10.134,-7.9 6.649,2.754 1.578,12.754 A 12,12 0 0 0 373.188,508 h 40.751 a 12,12 0 0 0 11.91,-10.526 l 1.578,-12.754 6.649,-2.754 10.134,7.9 a 12,12 0 0 0 15.864,-0.977 l 28.817,-28.817 a 12,12 0 0 0 0.977,-15.864 l -7.9,-10.134 2.754,-6.649 12.754,-1.578 A 12,12 0 0 0 508,413.939 V 373.188 A 12,12 0 0 0 497.474,361.279 Z M 131.234,151.493 a 19.9,19.9 0 0 1 -7.208,-14.347 389.1,389.1 0 0 1 199.948,0 20.021,20.021 0 0 1 -23.787,18.6 c -27.057,-5.152 -51.623,-7.728 -76.187,-7.728 -24.564,0 -49.13,2.576 -76.187,7.728 a 20.042,20.042 0 0 1 -16.579,-4.253 z M 340,192 c 0,7.608 -3.523,17.455 -8,24.928 v -28.912 c 3.354,0.1 6.4,0.368 7.672,1.022 A 9.965,9.965 0 0 1 340,192 Z M 176,28 h 96 a 52.059,52.059 0 0 1 52,52 v 32.393 a 412.069,412.069 0 0 0 -200,0 V 80 a 52.059,52.059 0 0 1 52,-52 z m -67.672,161.038 c 1.273,-0.654 4.318,-0.921 7.672,-1.022 v 28.912 c -4.477,-7.473 -8,-17.32 -8,-24.928 a 9.965,9.965 0 0 1 0.328,-2.962 z M 140,224 v -44.078 c 9.529,0.953 19.211,-2.275 28.482,-3.4 A 12,12 0 1 0 172,176 c -0.019,0 -0.038,0 -0.057,0 a 344.918,344.918 0 0 1 104.114,0 c -0.019,0 -0.038,0 -0.057,0 a 12,12 0 1 0 3.518,0.526 c 9.241,1.121 19.009,4.349 28.482,3.4 V 224 c 0,55.421 -58.879,84 -84,84 -38.033,-2.7 -84.35,-36.715 -84,-84 z m 344,179.333 -9.165,1.134 a 12,12 0 0 0 -9.613,7.317 l -8.1,19.567 a 12,12 0 0 0 1.624,11.97 l 5.679,7.283 -13.825,13.816 -7.283,-5.679 a 12,12 0 0 0 -11.97,-1.624 l -19.567,8.1 a 12,12 0 0 0 -7.317,9.613 l -1.13,9.17 H 383.8 l -1.134,-9.165 a 12,12 0 0 0 -7.317,-9.613 l -19.567,-8.1 a 12,12 0 0 0 -11.97,1.624 l -7.283,5.679 -13.821,-13.825 5.679,-7.283 a 12,12 0 0 0 1.624,-11.97 l -8.105,-19.567 a 12,12 0 0 0 -9.613,-7.317 l -9.165,-1.134 V 383.8 l 9.165,-1.134 a 12,12 0 0 0 9.613,-7.317 l 8.105,-19.567 a 12,12 0 0 0 -1.624,-11.97 l -5.679,-7.283 13.816,-13.816 7.283,5.679 a 12,12 0 0 0 11.97,1.624 l 19.567,-8.105 a 12,12 0 0 0 7.317,-9.613 l 1.134,-9.165 h 19.538 l 1.134,9.165 a 12,12 0 0 0 7.317,9.613 l 19.567,8.105 a 12,12 0 0 0 11.97,-1.624 l 7.283,-5.679 13.816,13.816 -5.679,7.283 a 12,12 0 0 0 -1.624,11.97 l 8.1,19.567 a 12,12 0 0 0 9.613,7.317 L 484,383.8 Z"
         id="path10" />
      <path
         d="m 393.564,344.631 a 48.934,48.934 0 1 0 34.6,14.332 48.613,48.613 0 0 0 -34.6,-14.332 z M 411.2,411.2 a 24.934,24.934 0 1 1 0,-35.261 24.961,24.961 0 0 1 0,35.261 z"
         id="path12" />
    </g>
  </g>
</svg>
