<?xml version="1.0" encoding="UTF-8" standalone="no"?>
<svg
   xmlns:dc="http://purl.org/dc/elements/1.1/"
   xmlns:cc="http://creativecommons.org/ns#"
   xmlns:rdf="http://www.w3.org/1999/02/22-rdf-syntax-ns#"
   xmlns:svg="http://www.w3.org/2000/svg"
   xmlns="http://www.w3.org/2000/svg"
   xmlns:sodipodi="http://sodipodi.sourceforge.net/DTD/sodipodi-0.dtd"
   xmlns:inkscape="http://www.inkscape.org/namespaces/inkscape"
   id="Layer_5"
   enable-background="new 0 0 64 64"
   height="796"
   viewBox="0 0 99.5 99.5"
   width="796"
   version="1.1"
   sodipodi:docname="2.svg"
   inkscape:version="1.0.2 (e86c870879, 2021-01-15, custom)">
  <metadata
     id="metadata27">
    <rdf:RDF>
      <cc:Work
         rdf:about="">
        <dc:format>image/svg+xml</dc:format>
        <dc:type
           rdf:resource="http://purl.org/dc/dcmitype/StillImage" />
        <dc:title></dc:title>
      </cc:Work>
    </rdf:RDF>
  </metadata>
  <defs
     id="defs25" />
  <sodipodi:namedview
     pagecolor="#ffffff"
     bordercolor="#666666"
     borderopacity="1"
     objecttolerance="10"
     gridtolerance="10"
     guidetolerance="10"
     inkscape:pageopacity="0"
     inkscape:pageshadow="2"
     inkscape:window-width="1366"
     inkscape:window-height="716"
     id="namedview23"
     showgrid="false"
     fit-margin-left="150"
     lock-margins="false"
     fit-margin-top="150"
     fit-margin-right="150"
     fit-margin-bottom="150"
     inkscape:zoom="1.0288567"
     inkscape:cx="398"
     inkscape:cy="398"
     inkscape:window-x="-8"
     inkscape:window-y="-8"
     inkscape:window-maximized="1"
     inkscape:current-layer="Layer_5" />
  <g
     id="g20"
     transform="translate(17.75,17.75)">
    <path
       d="M 63,26 V 4 C 63,2.346 61.654,1 60,1 H 22 C 20.346,1 19,2.346 19,4 V 9.035 C 18.653,9.012 18.324,9 18,9 8.626,9 1,16.626 1,26 1,33.994 6.553,40.699 14,42.505 V 46 c 0,0.537 0.153,1.034 0.401,1.471 C 13.562,48.003 13,48.935 13,50 v 8 c 0,2.757 2.243,5 5,5 2.757,0 5,-2.243 5,-5 V 50 C 23,48.935 22.438,48.003 21.599,47.471 21.847,47.034 22,46.537 22,46 v -3.495 c 4.054,-0.986 7.566,-3.428 9.913,-6.779 l 0.741,1.44 c -0.362,0.709 -0.67,1.455 -0.919,2.229 L 29,40.271 v 7.459 l 2.734,0.876 c 0.249,0.775 0.557,1.521 0.919,2.229 l -1.312,2.549 5.274,5.274 2.549,-1.312 c 0.709,0.362 1.455,0.67 2.229,0.919 L 42.271,61 h 7.459 l 0.876,-2.734 c 0.774,-0.249 1.521,-0.557 2.229,-0.919 l 2.549,1.312 5.273,-5.274 -1.311,-2.549 c 0.362,-0.708 0.67,-1.455 0.919,-2.229 L 63,47.729 V 40.27 l -2.734,-0.876 c -0.249,-0.773 -0.557,-1.521 -0.919,-2.229 l 1.311,-2.549 -5.273,-5.274 -2.549,1.312 c -0.71,-0.363 -1.456,-0.67 -2.229,-0.919 L 50.37,29 H 60 c 1.654,0 3,-1.346 3,-3 z m -41,3 h 6.566 C 27.246,33.699 22.981,37 18,37 11.935,37 7,32.065 7,26 7,19.935 11.935,15 18,15 c 0.32,0 0.654,0.022 1,0.057 V 26 c 0,1.654 1.346,3 3,3 z m -1,29 c 0,1.654 -1.346,3 -3,3 -1.654,0 -3,-1.346 -3,-3 v -8 c 0,-0.552 0.448,-1 1,-1 h 1 2 1 c 0.552,0 1,0.448 1,1 z M 20,46 c 0,0.552 -0.448,1 -1,1 h -2 c -0.552,0 -1,-0.448 -1,-1 v -3.128 c 0.657,0.077 1.322,0.128 2,0.128 0.677,0 1.342,-0.054 2,-0.132 z M 18,41 C 9.729,41 3,34.271 3,26 3,17.729 9.729,11 18,11 c 0.317,0 0.65,0.016 1,0.043 v 2.002 C 18.658,13.017 18.325,13 18,13 10.832,13 5,18.832 5,26 c 0,7.168 5.832,13 13,13 6.077,0 11.253,-4.159 12.628,-10 h 2.047 C 31.272,35.914 25.158,41 18,41 Z M 34.702,29 h 6.927 l -0.235,0.734 c -0.773,0.249 -1.52,0.556 -2.229,0.919 L 36.616,29.341 33.83,32.127 C 34.217,31.129 34.509,30.084 34.702,29 Z m 14.322,2.356 0.517,0.146 c 0.988,0.279 1.929,0.667 2.797,1.153 l 0.468,0.262 2.195,-1.129 3.211,3.211 -1.129,2.194 0.262,0.469 c 0.486,0.867 0.874,1.809 1.153,2.797 l 0.146,0.517 2.356,0.753 v 4.541 l -2.356,0.754 -0.146,0.517 c -0.28,0.99 -0.668,1.931 -1.152,2.797 l -0.263,0.468 1.129,2.195 -3.211,3.212 -2.194,-1.13 -0.469,0.262 c -0.867,0.485 -1.808,0.874 -2.797,1.154 L 49.024,56.645 48.271,59 H 43.73 l -0.754,-2.356 -0.517,-0.146 c -0.99,-0.28 -1.931,-0.668 -2.797,-1.152 l -0.468,-0.263 -2.195,1.13 -3.212,-3.212 1.13,-2.195 -0.263,-0.468 C 34.17,49.473 33.782,48.532 33.501,47.541 L 33.355,47.024 31,46.271 V 41.73 l 2.356,-0.754 0.146,-0.517 c 0.28,-0.99 0.668,-1.931 1.152,-2.797 l 0.263,-0.468 -1.13,-2.195 3.212,-3.211 2.195,1.129 0.468,-0.262 c 0.868,-0.486 1.809,-0.875 2.797,-1.153 L 42.976,31.356 43.729,29 H 48.27 Z M 42.271,27 H 22 c -0.552,0 -1,-0.449 -1,-1 V 4 c 0,-0.551 0.448,-1 1,-1 h 38 c 0.552,0 1,0.449 1,1 v 22 c 0,0.551 -0.448,1 -1,1 H 49.729 Z"
       id="path2" />
    <path
       d="m 54,5 c -2.757,0 -5,2.243 -5,5 0,0.56 0.114,1.09 0.284,1.593 l -4.446,2.594 C 44.113,13.455 43.109,13 42,13 c -0.964,0 -1.837,0.356 -2.528,0.926 L 34.713,10.465 C 34.893,10.01 35,9.518 35,9 35,6.794 33.206,5 31,5 c -2.206,0 -4,1.794 -4,4 0,1.339 0.667,2.52 1.68,3.246 l -2.601,6.762 C 26.052,19.007 26.027,19 26,19 c -1.654,0 -3,1.346 -3,3 0,1.654 1.346,3 3,3 1.654,0 3,-1.346 3,-3 0,-0.91 -0.415,-1.716 -1.057,-2.267 l 2.608,-6.779 C 30.7,12.972 30.846,13 31,13 c 0.964,0 1.836,-0.356 2.528,-0.926 l 4.759,3.461 C 38.107,15.99 38,16.482 38,17 c 0,2.206 1.794,4 4,4 2.206,0 4,-1.794 4,-4 0,-0.376 -0.069,-0.733 -0.166,-1.079 l 4.457,-2.6 C 51.207,14.343 52.523,15 54,15 56.757,15 59,12.757 59,10 59,7.243 56.757,5 54,5 Z M 26,23 c -0.552,0 -1,-0.449 -1,-1 0,-0.551 0.448,-1 1,-1 0.552,0 1,0.449 1,1 0,0.551 -0.448,1 -1,1 z m 5,-12 c -1.103,0 -2,-0.897 -2,-2 0,-1.103 0.897,-2 2,-2 1.103,0 2,0.897 2,2 0,1.103 -0.897,2 -2,2 z m 11,8 c -1.103,0 -2,-0.897 -2,-2 0,-1.103 0.897,-2 2,-2 1.103,0 2,0.897 2,2 0,1.103 -0.897,2 -2,2 z m 12,-6 c -1.654,0 -3,-1.346 -3,-3 0,-1.654 1.346,-3 3,-3 1.654,0 3,1.346 3,3 0,1.654 -1.346,3 -3,3 z"
       id="path4" />
    <path
       d="m 49,23 h 2 v 2 h -2 z"
       id="path6" />
    <path
       d="m 53,23 h 2 v 2 h -2 z"
       id="path8" />
    <path
       d="m 57,23 h 2 v 2 h -2 z"
       id="path10" />
    <path
       d="m 49,19 h 10 v 2 H 49 Z"
       id="path12" />
    <path
       d="M 11,26 H 9 c 0,4.962 4.037,9 9,9 v -2 c -3.859,0 -7,-3.14 -7,-7 z"
       id="path14" />
    <path
       d="m 53,44 h -2 c 0,2.757 -2.243,5 -5,5 v 2 c 3.859,0 7,-3.141 7,-7 z"
       id="path16" />
    <path
       d="m 35,44 c 0,6.065 4.935,11 11,11 6.065,0 11,-4.935 11,-11 0,-6.065 -4.935,-11 -11,-11 -6.065,0 -11,4.935 -11,11 z m 11,-9 c 4.963,0 9,4.037 9,9 0,4.963 -4.037,9 -9,9 -4.963,0 -9,-4.037 -9,-9 0,-4.963 4.037,-9 9,-9 z"
       id="path18" />
  </g>
</svg>
