<?xml version="1.0" encoding="UTF-8" standalone="no"?>
<svg
   xmlns:dc="http://purl.org/dc/elements/1.1/"
   xmlns:cc="http://creativecommons.org/ns#"
   xmlns:rdf="http://www.w3.org/1999/02/22-rdf-syntax-ns#"
   xmlns:svg="http://www.w3.org/2000/svg"
   xmlns="http://www.w3.org/2000/svg"
   xmlns:sodipodi="http://sodipodi.sourceforge.net/DTD/sodipodi-0.dtd"
   xmlns:inkscape="http://www.inkscape.org/namespaces/inkscape"
   viewBox="0 0 812 812"
   version="1.1"
   id="svg14"
   sodipodi:docname="22.svg"
   width="812"
   height="812"
   inkscape:version="1.0.2 (e86c870879, 2021-01-15, custom)">
  <metadata
     id="metadata20">
    <rdf:RDF>
      <cc:Work
         rdf:about="">
        <dc:format>image/svg+xml</dc:format>
        <dc:type
           rdf:resource="http://purl.org/dc/dcmitype/StillImage" />
        <dc:title></dc:title>
      </cc:Work>
    </rdf:RDF>
  </metadata>
  <defs
     id="defs18" />
  <sodipodi:namedview
     pagecolor="#ffffff"
     bordercolor="#666666"
     borderopacity="1"
     objecttolerance="10"
     gridtolerance="10"
     guidetolerance="10"
     inkscape:pageopacity="0"
     inkscape:pageshadow="2"
     inkscape:window-width="1366"
     inkscape:window-height="716"
     id="namedview16"
     showgrid="false"
     lock-margins="true"
     fit-margin-top="150"
     fit-margin-left="150"
     fit-margin-right="150"
     fit-margin-bottom="150"
     inkscape:zoom="1.0288567"
     inkscape:cx="406"
     inkscape:cy="406"
     inkscape:window-x="-8"
     inkscape:window-y="-8"
     inkscape:window-maximized="1"
     inkscape:current-layer="svg14" />
  <path
     d="m 339.33984,564.98438 v -53.28907 h 11.46875 v 53.25391 c 0,3.10547 1.44532,6.03906 3.91016,7.93359 2.46484,1.89063 5.67578,2.52735 8.67578,1.72656 15.36328,-4.11328 29.07422,-13.4414 38.60156,-26.26953 9.73438,-13.10156 14.66407,-29.34375 13.87891,-45.73437 -1.10156,-22.91016 -13.49609,-43.96875 -32.78125,-56.31641 v -80.54297 c 20.39063,-12.97656 32.81641,-35.37109 32.81641,-59.82422 0,-32.14062 -21.67578,-60.33593 -52.71094,-68.57031 -3,-0.79297 -6.20313,-0.15234 -8.66406,1.73828 -2.46094,1.89454 -3.90235,4.82032 -3.90235,7.92579 v 53.29296 h -11.46484 v -53.25781 c 0,-3.10547 -1.44531,-6.03906 -3.91016,-7.93359 -2.46484,-1.89063 -5.67187,-2.52735 -8.67578,-1.72656 -15.36328,4.11328 -29.07422,13.4414 -38.60547,26.26953 -9.73047,13.10156 -14.66015,29.34375 -13.875,45.73437 1.09766,22.88672 13.47657,43.93359 32.73438,56.28516 v 80.60547 c -20.35938,12.98046 -32.76953,35.36718 -32.76953,59.79296 0,32.14063 21.67578,60.33594 52.71093,68.57032 0.84766,0.22265 1.70704,0.33593 2.5625,0.33593 2.1836,0 4.33204,-0.71484 6.10157,-2.07421 2.45703,-1.89063 3.89843,-4.82032 3.89843,-7.92578 z m -20,-63.28907 v 48.40625 c -15.34765,-8.96093 -25.27734,-25.58984 -25.27734,-44.02343 0,-19.03125 10.5,-36.34375 27.40234,-45.17579 3.30079,-1.72265 5.3711,-5.13672 5.3711,-8.86328 V 359.9375 c 0,-3.71875 -2.0625,-7.12891 -5.35547,-8.85547 -16.04297,-8.41797 -26.54297,-24.75781 -27.40234,-42.64453 -0.91797,-19.16406 9.15625,-36.98828 25.08984,-46.42969 v 48.29688 c 0,5.52343 4.47656,10 10,10 h 31.46484 c 5.52344,0 10,-4.47657 10,-10 v -48.40625 c 15.35157,8.96093 25.27735,25.58593 25.27735,44.01953 0,19.05469 -10.51563,36.37109 -27.4375,45.19531 -3.3086,1.72656 -5.37891,5.14453 -5.37891,8.86719 v 92.05469 c 0,3.72265 2.06641,7.13671 5.36328,8.85937 16.06641,8.41406 26.58203,24.76172 27.44141,42.66797 0.91797,19.16406 -9.15625,36.98828 -25.08985,46.42969 v -48.29688 c 0,-5.52344 -4.48046,-10 -10,-10 h -31.46875 c -5.52343,0 -10,4.47656 -10,10 z m 0,0"
     id="path2" />
  <path
     d="m 459.16406,285.03906 c -0.71875,2.27735 -0.59375,4.73828 0.34766,6.9375 l 4.96484,11.58985 v 105.875 c -11.875,0.11718 -21.5039,9.8125 -21.5039,21.71484 v 96.32422 c 0,26.19141 21.3125,47.50391 47.5039,47.50391 26.19532,0 47.50782,-21.3125 47.50782,-47.50391 v -96.32422 c 0,-11.90625 -9.62891,-21.59766 -21.50782,-21.71484 V 303.5625 l 4.96875,-11.58594 c 0.94141,-2.19531 1.0625,-4.65625 0.34766,-6.9375 l -12.89453,-41.01953 c -1.3086,-4.16797 -5.17188,-7.0039 -9.53906,-7.0039 h -17.76172 c -4.3711,0 -8.23047,2.83593 -9.54297,7.0039 z m 58.81641,146.11719 v 96.32422 c 0,15.16406 -12.33594,27.50391 -27.50391,27.50391 -15.16797,0 -27.5039,-12.33985 -27.5039,-27.50391 v -96.32422 c 0,-0.94922 0.76953,-1.72266 1.71875,-1.72266 h 51.57031 c 0.94922,0.004 1.71875,0.77344 1.71875,1.72266 z M 488.9375,257.01562 h 3.08203 l 9.58203,30.48829 -4.3164,10.0664 c -0.53125,1.2461 -0.8086,2.58594 -0.8086,3.9375 v 107.92578 h -12 V 301.51172 c 0,-1.35547 -0.27344,-2.69531 -0.80859,-3.9375 l -4.3125,-10.07031 z m 0,0"
     id="path4" />
  <path
     d="m 232.05078,537.57813 c -6.67578,0 -13.11328,1.54687 -18.91797,4.44921 C 184.88672,502.125 170,455.28906 170,406 170,275.86719 275.86719,170 406,170 c 18.73438,0 37.38281,2.19922 55.41797,6.54297 5.3789,1.29297 10.76953,-2.01563 12.0625,-7.38281 1.29297,-5.3711 -2.01172,-10.77344 -7.38281,-12.0625 C 446.53125,152.38672 426.3125,150 406,150 337.62109,150 273.33203,176.62891 224.98047,224.98047 176.62891,273.33203 150,337.62109 150,406 c 0,54.05078 16.51172,105.38281 47.8125,148.98438 -5.27344,7.20703 -8.12891,15.86328 -8.12891,24.96484 0,11.31641 4.40625,21.95312 12.41016,29.95703 8.00391,8.00391 18.64063,12.41016 29.95703,12.41016 11.31641,0 21.95703,-4.40625 29.96094,-12.41016 8,-8.00391 12.41015,-18.64062 12.41015,-29.95703 0,-11.31641 -4.41015,-21.95703 -12.41015,-29.96094 -8.00391,-8 -18.64453,-12.41015 -29.96094,-12.41015 z m 15.81641,58.1875 c -4.22266,4.22265 -9.83985,6.55078 -15.81641,6.55078 -5.97265,0 -11.58984,-2.32813 -15.8164,-6.55078 -4.22266,-4.22657 -6.55079,-9.84375 -6.55079,-15.81641 0,-5.97266 2.32813,-11.59375 6.55079,-15.81641 4.22656,-4.22265 9.84375,-6.55078 15.8164,-6.55078 5.97656,0 11.59375,2.32422 15.81641,6.55078 4.22656,4.22656 6.55468,9.84375 6.55468,15.81641 0,5.97265 -2.32812,11.58984 -6.55468,15.81641 z m 0,0"
     id="path6" />
  <path
     d="m 614.1875,257.01172 c 5.27344,-7.20313 8.12891,-15.86328 8.12891,-24.96094 0,-11.3164 -4.40625,-21.95703 -12.41016,-29.95703 -8.00391,-8.00391 -18.64062,-12.41016 -29.95703,-12.41016 -11.31641,0 -21.95703,4.40625 -29.96094,12.41016 -8,8 -12.41015,18.64063 -12.41015,29.95703 0,11.31641 4.41015,21.95703 12.41015,29.96094 8.00391,8 18.64453,12.40625 29.96094,12.40625 6.67578,0 13.10937,-1.54297 18.91406,-4.44531 C 627.10547,309.88672 642,356.74219 642,406 c 0,130.13281 -105.86719,236 -236,236 -20.01953,0 -39.89844,-2.50781 -59.09375,-7.45703 -5.35156,-1.38281 -10.80078,1.83984 -12.17969,7.1875 -1.3789,5.34766 1.83985,10.80078 7.1875,12.17969 C 362.73438,659.27734 384.29688,662 406,662 474.37891,662 538.66797,635.37109 587.01953,587.01953 635.37109,538.66797 662,474.37891 662,406 662,351.98438 645.48438,300.62109 614.1875,257.01172 Z m -50.05469,-9.14453 c -4.22656,-4.22266 -6.55468,-9.83985 -6.55468,-15.81641 0,-5.97265 2.32812,-11.58984 6.55468,-15.8164 4.22266,-4.22266 9.83985,-6.55079 15.81641,-6.55079 5.97266,0 11.58984,2.32813 15.81641,6.55079 4.22265,4.22656 6.55078,9.84375 6.55078,15.8164 0,5.97656 -2.32813,11.59375 -6.55078,15.81641 -4.22657,4.22656 -9.84375,6.55468 -15.81641,6.55468 -5.97656,0 -11.59375,-2.32812 -15.81641,-6.55468 z m 0,0"
     id="path8" />
  <path
     d="m 318.38281,625.19922 -0.27734,-0.10938 c -5.12109,-2.0664 -10.94531,0.40235 -13.01953,5.52344 -2.06641,5.1211 0.40234,10.94922 5.52344,13.01953 l 0.27734,0.10938 c 1.22656,0.49609 2.49609,0.73047 3.74219,0.73047 3.95703,0 7.69922,-2.36328 9.27343,-6.25391 2.07422,-5.11719 -0.39843,-10.94922 -5.51953,-13.01953 z m 0,0"
     id="path10" />
  <path
     d="m 494.16797,187.01953 c 0.0273,0.0117 0.10547,0.043 0.14844,0.0625 1.23047,0.5 2.5039,0.73438 3.75781,0.73438 3.9375,0 7.66797,-2.33985 9.25391,-6.20703 2.09765,-5.10938 -0.34375,-10.94922 -5.45313,-13.04688 -0.0352,-0.0117 -0.082,-0.0312 -0.11328,-0.0469 -5.11328,-2.09766 -10.95313,0.34766 -13.05078,5.45703 -2.09375,5.10938 0.34765,10.95313 5.45703,13.04688 z m 0,0"
     id="path12" />
</svg>
