<?xml version="1.0" encoding="UTF-8" standalone="no"?>
<svg
   xmlns:dc="http://purl.org/dc/elements/1.1/"
   xmlns:cc="http://creativecommons.org/ns#"
   xmlns:rdf="http://www.w3.org/1999/02/22-rdf-syntax-ns#"
   xmlns:svg="http://www.w3.org/2000/svg"
   xmlns="http://www.w3.org/2000/svg"
   xmlns:sodipodi="http://sodipodi.sourceforge.net/DTD/sodipodi-0.dtd"
   xmlns:inkscape="http://www.inkscape.org/namespaces/inkscape"
   height="869.44916pt"
   viewBox="0 0 869.43036 870.28812"
   width="869.43036pt"
   version="1.1"
   id="svg12"
   sodipodi:docname="3.svg"
   inkscape:version="1.0.2 (e86c870879, 2021-01-15, custom)">
  <metadata
     id="metadata18">
    <rdf:RDF>
      <cc:Work
         rdf:about="">
        <dc:format>image/svg+xml</dc:format>
        <dc:type
           rdf:resource="http://purl.org/dc/dcmitype/StillImage" />
        <dc:title></dc:title>
      </cc:Work>
    </rdf:RDF>
  </metadata>
  <defs
     id="defs16" />
  <sodipodi:namedview
     pagecolor="#ffffff"
     bordercolor="#666666"
     borderopacity="1"
     objecttolerance="10"
     gridtolerance="10"
     guidetolerance="10"
     inkscape:pageopacity="0"
     inkscape:pageshadow="2"
     inkscape:window-width="1366"
     inkscape:window-height="716"
     id="namedview14"
     showgrid="false"
     lock-margins="true"
     fit-margin-top="150"
     fit-margin-left="150"
     fit-margin-right="150"
     fit-margin-bottom="150"
     inkscape:zoom="0.69434268"
     inkscape:cx="578.60342"
     inkscape:cy="579.33304"
     inkscape:window-x="-8"
     inkscape:window-y="-8"
     inkscape:window-maximized="1"
     inkscape:current-layer="svg12" />
  <path
     d="m 151.12412,202.39061 37.98437,66.46875 c 1.28125,2.2461 3.42578,3.8711 5.9336,4.5 l 35.4375,8.85938 121.54296,121.54297 13.42969,-13.42578 -123.44531,-123.44141 c -1.21484,-1.21875 -2.73828,-2.08203 -4.40625,-2.5 l -34.05078,-8.54297 -32.33985,-56.625 27.72657,-27.72656 56.64843,32.37109 8.54688,34.05078 c 0.41406,1.67188 1.28125,3.19922 2.49609,4.41406 l 123.44531,123.44532 13.42578,-13.42969 -121.54296,-121.54297 -8.85938,-35.41797 c -0.62891,-2.51172 -2.25391,-4.66015 -4.5,-5.94531 l -66.47265,-37.98047 c -3.70703,-2.10937 -8.3711,-1.48437 -11.39453,1.52734 l -37.98047,37.98438 c -3.05469,3.00391 -3.71875,7.67578 -1.625,11.41406 z m 0,0"
     id="path2" />
  <path
     d="M 545.90927,337.28905 337.00693,546.1953 323.57724,532.76561 532.48349,323.86327 Z m 0,0"
     id="path4" />
  <path
     d="m 300.44443,553.58593 c -1.71875,-2.85938 -4.80469,-4.60547 -8.14063,-4.60547 h -56.97265 c -3.33203,0 -6.42188,1.74609 -8.13672,4.60547 l -28.48828,47.47656 c -1.8086,3.00781 -1.8086,6.76953 0,9.78125 l 28.48828,47.47656 c 1.71484,2.85547 4.80469,4.60547 8.13672,4.60547 h 56.97265 c 3.33594,0 6.42188,-1.75 8.14063,-4.60547 l 28.48437,-47.47656 c 1.8086,-3.01172 1.8086,-6.77344 0,-9.78125 z m -13.51172,90.34765 h -46.22656 l -22.78906,-37.98047 22.78906,-37.98437 h 46.22656 l 22.78906,37.98437 z m 0,0"
     id="path6" />
  <path
     d="m 605.65927,378.05858 c 62.71484,0.21094 113.73047,-50.46093 113.94141,-113.17578 0.0312,-9.54687 -1.14063,-19.05469 -3.48829,-28.30859 -1.26562,-5.08985 -6.41796,-8.1875 -11.50781,-6.92188 -1.67187,0.41797 -3.19531,1.28125 -4.41406,2.49609 l -59.10937,59.07032 -46.89844,-15.62891 -15.64063,-46.88672 59.10938,-59.12109 c 3.70703,-3.71094 3.70312,-9.72266 -0.008,-13.42969 -1.22266,-1.22266 -2.76172,-2.08984 -4.44532,-2.50391 -60.82031,-15.40234 -122.60547,21.41407 -138.00781,82.23047 -2.33984,9.22657 -3.50781,18.71094 -3.47656,28.23047 0.0234,7.47657 0.79297,14.92969 2.30859,22.25 L 286.06552,494.31249 c -7.32031,-1.51172 -14.77344,-2.28125 -22.24609,-2.3086 -62.93359,0 -113.94922,51.01563 -113.94922,113.94922 0,62.92969 51.01563,113.94532 113.94922,113.94532 62.92968,0 113.94531,-51.01563 113.94531,-113.94532 -0.0234,-7.47656 -0.79688,-14.92968 -2.3086,-22.25 l 49.78516,-49.78515 21.77344,21.77343 c 3.71094,3.70704 9.71875,3.70704 13.42969,0 l 4.74609,-4.75 c 4.16406,-4.13671 10.89453,-4.13671 15.05859,0 4.16016,4.14844 4.16797,10.88282 0.0195,15.04297 -0.004,0.004 -0.0117,0.0117 -0.0195,0.0195 l -4.74609,4.7461 c -3.70703,3.70703 -3.70703,9.71875 0,13.42578 l 113.27344,113.27344 c 29.79297,30.0664 78.3164,30.28515 108.38281,0.49218 30.0625,-29.79296 30.28125,-78.32031 0.48828,-108.38281 -0.16016,-0.16406 -0.32422,-0.32812 -0.48828,-0.49219 L 583.88583,475.79686 c -3.70703,-3.70703 -9.71875,-3.70703 -13.42578,0 l -4.74609,4.7461 c -4.16797,4.14062 -10.89453,4.14062 -15.0625,0 -4.15625,-4.14844 -4.16797,-10.88282 -0.0195,-15.03907 0.008,-0.008 0.0156,-0.0117 0.0195,-0.0195 l 4.75,-4.75 c 3.70703,-3.70703 3.70703,-9.71875 0,-13.42578 l -21.77344,-21.77344 49.78516,-49.78515 c 7.32031,1.51172 14.77343,2.28515 22.24609,2.30859 z m 37.30859,322.85156 c -6.89843,-0.0117 -13.73828,-1.25781 -20.19531,-3.68359 l 74.16016,-74.16406 c 11.1914,29.76953 -3.86719,62.97265 -33.63672,74.16406 -6.4961,2.44141 -13.38281,3.69141 -20.32813,3.68359 z M 535.39365,454.11718 c -10.51563,12.54297 -8.86719,31.23828 3.67578,41.75 11.02343,9.23828 27.08984,9.23047 38.10156,-0.0274 l 106.5625,106.65625 c 1.15625,1.16016 2.23828,2.38282 3.28515,3.625 l -81.18749,81.1875 c -1.2461,-1.04297 -2.46875,-2.125 -3.62891,-3.28515 L 495.55771,577.37108 c 10.51562,-12.54297 8.86719,-31.23828 -3.67578,-41.75 -11.02344,-9.24218 -27.09375,-9.23047 -38.10547,0.0234 l -15.19141,-15.19141 81.61328,-81.49218 z M 573.7374,358.61327 358.32724,573.98046 c -2.36328,2.35937 -3.3125,5.78515 -2.50781,9.02344 13.02734,51.16015 -17.88672,103.19531 -69.05078,116.21874 -51.16016,13.02735 -103.19531,-17.88671 -116.22266,-69.05078 -13.02344,-51.16015 17.89063,-103.19531 69.05469,-116.22265 15.47656,-3.9375 31.6914,-3.9375 47.16797,0 3.23828,0.79297 6.65625,-0.15625 9.02343,-2.50391 L 511.15146,296.07421 c 2.35937,-2.35938 3.30859,-5.78516 2.49609,-9.01953 -12.9375,-50.56251 17.5625,-102.03907 68.125,-114.98047 9.55469,-2.44141 19.4375,-3.37891 29.28125,-2.76563 l -50.08984,50.10938 c -2.54297,2.53906 -3.4336,6.30078 -2.29688,9.71093 l 18.98828,56.97657 c 0.94922,2.83203 3.17578,5.05859 6.01172,6 l 56.97656,18.99218 c 3.40625,1.13672 7.16797,0.25 9.71094,-2.28906 l 50.08985,-50.08984 c 0.11328,1.8125 0.17187,3.60547 0.17187,5.39062 0.26563,52.17578 -41.8125,94.6875 -93.98828,94.95703 -8.06641,0.0391 -16.10547,-0.95312 -23.91797,-2.95312 -3.23828,-0.80859 -6.66406,0.13672 -9.02344,2.49609 h 0.0508 z m 0,0"
     id="path8" />
  <path
     d="m 640.87021,627.72265 -13.42969,13.42968 -94.95312,-94.95312 13.42578,-13.42969 z m 0,0"
     id="path10" />
</svg>
