<?xml version="1.0" encoding="UTF-8" standalone="no"?>
<svg
   xmlns:dc="http://purl.org/dc/elements/1.1/"
   xmlns:cc="http://creativecommons.org/ns#"
   xmlns:rdf="http://www.w3.org/1999/02/22-rdf-syntax-ns#"
   xmlns:svg="http://www.w3.org/2000/svg"
   xmlns="http://www.w3.org/2000/svg"
   xmlns:sodipodi="http://sodipodi.sourceforge.net/DTD/sodipodi-0.dtd"
   xmlns:inkscape="http://www.inkscape.org/namespaces/inkscape"
   version="1.1"
   id="Capa_1"
   x="0px"
   y="0px"
   viewBox="0 0 812 812"
   xml:space="preserve"
   sodipodi:docname="33.svg"
   width="812"
   height="812"
   inkscape:version="1.0.2 (e86c870879, 2021-01-15, custom)"><metadata
   id="metadata67"><rdf:RDF><cc:Work
       rdf:about=""><dc:format>image/svg+xml</dc:format><dc:type
         rdf:resource="http://purl.org/dc/dcmitype/StillImage" /><dc:title></dc:title></cc:Work></rdf:RDF></metadata><defs
   id="defs65" /><sodipodi:namedview
   pagecolor="#ffffff"
   bordercolor="#666666"
   borderopacity="1"
   objecttolerance="10"
   gridtolerance="10"
   guidetolerance="10"
   inkscape:pageopacity="0"
   inkscape:pageshadow="2"
   inkscape:window-width="1366"
   inkscape:window-height="716"
   id="namedview63"
   showgrid="false"
   lock-margins="true"
   fit-margin-top="150"
   fit-margin-left="150"
   fit-margin-right="150"
   fit-margin-bottom="150"
   inkscape:zoom="1.0288567"
   inkscape:cx="406"
   inkscape:cy="406"
   inkscape:window-x="-8"
   inkscape:window-y="-8"
   inkscape:window-maximized="1"
   inkscape:current-layer="Capa_1" />
<g
   id="g6"
   transform="translate(150,150)">
	<g
   id="g4">
		<path
   d="m 449.373,94.063 c -29.43,0 -53.372,23.943 -53.372,53.373 V 185 H 353.11 C 366.627,165.397 374,141.946 374,118 374,52.935 321.065,0 256,0 190.935,0 138,52.935 138,118 c 0,23.968 7.367,47.396 20.884,67 H 116 V 147.435 C 116,118.005 92.058,94.062 62.628,94.062 28.095,94.063 0,122.158 0,156.69 V 438.143 C 0,478.868 33.132,512 73.857,512 H 438.142 C 478.868,512 512,478.868 512,438.143 V 156.69 C 512.001,122.158 483.906,94.063 449.373,94.063 Z M 158,118 c 0,-54.037 43.963,-98 98,-98 54.037,0 98,43.962 98,98 0,22.489 -7.812,44.458 -21.997,61.862 -0.119,0.147 -0.234,0.297 -0.345,0.449 l -75.66,96.977 -74.842,-95.883 c -0.225,-0.356 -0.475,-0.701 -0.748,-1.032 C 165.958,162.882 158,140.731 158,118 Z M 20,156.69 c 0,-23.504 19.123,-42.627 42.628,-42.627 18.401,0 33.372,14.971 33.372,33.373 V 387.28 C 86.853,379.929 75.249,375.516 62.628,375.516 46.173,375.516 31.189,381.905 20,392.32 Z M 335.142,492 301.238,458.096 c -3.905,-3.905 -10.235,-3.905 -14.143,0 -3.905,3.905 -3.905,10.237 0,14.142 L 306.858,492 H 73.857 C 44.16,492 20,467.84 20,438.143 c 0,-23.505 19.123,-42.628 42.628,-42.628 18.401,0 33.372,14.971 33.372,33.373 0,14.196 -11.549,25.745 -25.745,25.745 -10.729,0 -19.459,-8.729 -19.459,-19.459 0,-5.523 -4.478,-10 -10,-10 -5.522,0 -10,4.477 -10,10 0,21.758 17.701,39.459 39.459,39.459 25.224,0 45.745,-20.521 45.745,-45.745 V 382 h 80.857 l 40.697,40.697 c 1.953,1.952 4.512,2.929 7.071,2.929 2.559,0 5.118,-0.977 7.071,-2.929 3.905,-3.905 3.905,-10.237 0,-14.143 L 208.07,364.928 C 206.195,363.054 203.652,362 201,362 h -85 v -29.948 h 122.822 c 5.522,0 10,-4.477 10,-10 0,-5.523 -4.478,-10 -10,-10 H 116 V 205 h 58.202 l 73.915,94.695 c 1.896,2.428 4.804,3.848 7.884,3.847 3.08,-10e-4 5.988,-1.42 7.884,-3.849 L 337.764,205 h 58.237 v 12.983 L 259.519,354.467 c -3.905,3.905 -3.905,10.237 0,14.143 L 382.909,492 Z m 103.001,0 H 411.195 L 280.732,361.538 396.001,246.269 v 182.619 c 0,25.224 20.521,45.745 45.744,45.745 21.758,0 39.459,-17.701 39.459,-39.459 0,-5.523 -4.478,-10 -10,-10 -5.522,0 -10,4.477 -10,10 0,10.729 -8.729,19.459 -19.459,19.459 -14.195,0 -25.744,-11.549 -25.744,-25.745 0,-18.402 14.971,-33.373 33.372,-33.373 23.505,0 42.628,19.123 42.628,42.628 0,29.697 -24.161,53.857 -53.858,53.857 z m 53.858,-99.681 c -11.188,-10.415 -26.173,-16.804 -42.628,-16.804 -12.621,0 -24.225,4.413 -33.372,11.764 V 147.436 c 0,-18.402 14.971,-33.373 33.372,-33.373 23.505,0 42.628,19.123 42.628,42.627 z"
   id="path2" />
	</g>
</g>
<g
   id="g12"
   transform="translate(150,150)">
	<g
   id="g10">
		<path
   d="m 58,172.989 c -5.522,0 -10,4.477 -10,10 v 73.423 c 0,5.523 4.478,10 10,10 5.522,0 10,-4.477 10,-10 v -73.423 c 0,-5.523 -4.478,-10 -10,-10 z"
   id="path8" />
	</g>
</g>
<g
   id="g18"
   transform="translate(150,150)">
	<g
   id="g16">
		<path
   d="m 65.069,287.951 c -1.859,-1.86 -4.439,-2.93 -7.069,-2.93 -2.63,0 -5.21,1.07 -7.07,2.93 -1.86,1.86 -2.93,4.44 -2.93,7.07 0,2.64 1.069,5.21 2.93,7.07 1.86,1.869 4.44,2.93 7.07,2.93 2.63,0 5.21,-1.06 7.069,-2.93 1.86,-1.86 2.931,-4.44 2.931,-7.07 0,-2.63 -1.07,-5.21 -2.931,-7.07 z"
   id="path14" />
	</g>
</g>
<g
   id="g24"
   transform="translate(150,150)">
	<g
   id="g22">
		<path
   d="m 256,48.974 c -39.012,0 -70.75,31.738 -70.75,70.75 0,39.012 31.738,70.75 70.75,70.75 39.012,0 70.75,-31.738 70.75,-70.75 0,-39.012 -31.738,-70.75 -70.75,-70.75 z m 0,121.5 c -27.983,0 -50.75,-22.767 -50.75,-50.75 0,-27.983 22.767,-50.75 50.75,-50.75 27.983,0 50.75,22.767 50.75,50.75 0,27.983 -22.767,50.75 -50.75,50.75 z"
   id="path20" />
	</g>
</g>
<g
   id="g30"
   transform="translate(150,150)">
	<g
   id="g28">
		<path
   d="m 276.819,433.68 c -1.859,-1.86 -4.439,-2.93 -7.069,-2.93 -2.63,0 -5.21,1.07 -7.07,2.93 -1.86,1.86 -2.93,4.44 -2.93,7.07 0,2.63 1.069,5.21 2.93,7.07 1.861,1.86 4.44,2.93 7.07,2.93 2.63,0 5.21,-1.07 7.069,-2.93 1.86,-1.86 2.931,-4.44 2.931,-7.07 0,-2.63 -1.07,-5.21 -2.931,-7.07 z"
   id="path26" />
	</g>
</g>
<g
   id="g32"
   transform="translate(150,150)">
</g>
<g
   id="g34"
   transform="translate(150,150)">
</g>
<g
   id="g36"
   transform="translate(150,150)">
</g>
<g
   id="g38"
   transform="translate(150,150)">
</g>
<g
   id="g40"
   transform="translate(150,150)">
</g>
<g
   id="g42"
   transform="translate(150,150)">
</g>
<g
   id="g44"
   transform="translate(150,150)">
</g>
<g
   id="g46"
   transform="translate(150,150)">
</g>
<g
   id="g48"
   transform="translate(150,150)">
</g>
<g
   id="g50"
   transform="translate(150,150)">
</g>
<g
   id="g52"
   transform="translate(150,150)">
</g>
<g
   id="g54"
   transform="translate(150,150)">
</g>
<g
   id="g56"
   transform="translate(150,150)">
</g>
<g
   id="g58"
   transform="translate(150,150)">
</g>
<g
   id="g60"
   transform="translate(150,150)">
</g>
</svg>
