<?xml version="1.0" encoding="UTF-8" standalone="no"?>
<svg
   xmlns:dc="http://purl.org/dc/elements/1.1/"
   xmlns:cc="http://creativecommons.org/ns#"
   xmlns:rdf="http://www.w3.org/1999/02/22-rdf-syntax-ns#"
   xmlns:svg="http://www.w3.org/2000/svg"
   xmlns="http://www.w3.org/2000/svg"
   xmlns:sodipodi="http://sodipodi.sourceforge.net/DTD/sodipodi-0.dtd"
   xmlns:inkscape="http://www.inkscape.org/namespaces/inkscape"
   id="Capa_1"
   enable-background="new 0 0 513.266 513.266"
   height="811.99902"
   viewBox="0 0 700.825 814.00682"
   width="699.09637"
   version="1.1"
   sodipodi:docname="4.svg"
   inkscape:version="1.0.2 (e86c870879, 2021-01-15, custom)">
  <metadata
     id="metadata31">
    <rdf:RDF>
      <cc:Work
         rdf:about="">
        <dc:format>image/svg+xml</dc:format>
        <dc:type
           rdf:resource="http://purl.org/dc/dcmitype/StillImage" />
        <dc:title></dc:title>
      </cc:Work>
    </rdf:RDF>
  </metadata>
  <defs
     id="defs29" />
  <sodipodi:namedview
     pagecolor="#ffffff"
     bordercolor="#666666"
     borderopacity="1"
     objecttolerance="10"
     gridtolerance="10"
     guidetolerance="10"
     inkscape:pageopacity="0"
     inkscape:pageshadow="2"
     inkscape:window-width="1366"
     inkscape:window-height="716"
     id="namedview27"
     showgrid="false"
     lock-margins="true"
     fit-margin-top="150"
     fit-margin-left="150"
     fit-margin-right="150"
     fit-margin-bottom="150"
     inkscape:zoom="1.0288567"
     inkscape:cx="349.54858"
     inkscape:cy="406"
     inkscape:window-x="-8"
     inkscape:window-y="-8"
     inkscape:window-maximized="1"
     inkscape:current-layer="Capa_1" />
  <g
     id="g24"
     transform="translate(93.779898,150.3709)">
    <path
       d="m 64.091,104.197 c 4.142,0 7.5,-3.357 7.5,-7.5 V 59.277 C 71.591,34.862 91.454,15 115.869,15 h 191.307 c 24.415,0 44.278,19.862 44.278,44.277 v 49.059 c 0,4.143 3.358,7.5 7.5,7.5 4.142,0 7.5,-3.357 7.5,-7.5 V 59.277 C 366.454,26.592 339.862,0 307.176,0 H 115.869 C 83.183,0 56.591,26.592 56.591,59.277 v 37.42 c 0,4.143 3.358,7.5 7.5,7.5 z"
       id="path2" />
    <path
       d="m 358.954,354.199 c -4.142,0 -7.5,3.357 -7.5,7.5 v 92.289 c 0,24.415 -19.863,44.277 -44.278,44.277 H 115.869 c -24.415,0 -44.278,-19.862 -44.278,-44.277 V 128.659 c 0,-4.143 -3.358,-7.5 -7.5,-7.5 -4.142,0 -7.5,3.357 -7.5,7.5 v 325.329 c 0,32.686 26.592,59.277 59.278,59.277 h 191.307 c 32.686,0 59.278,-26.592 59.278,-59.277 v -92.289 c 0,-4.142 -3.358,-7.5 -7.5,-7.5 z"
       id="path4" />
    <path
       d="m 328.954,119.474 c 4.142,0 7.5,-3.357 7.5,-7.5 V 59.277 C 336.454,43.134 323.32,30 307.177,30 h -12.382 c -5.772,0 -11.014,3.631 -13.042,9.035 l -2.947,7.85 c -2.139,5.696 -7.664,9.524 -13.749,9.524 H 157.988 c -6.085,0 -11.61,-3.827 -13.749,-9.524 l -2.947,-7.85 C 139.263,33.631 134.022,30 128.25,30 H 115.869 C 99.725,30 86.591,43.134 86.591,59.277 v 394.711 c 0,16.144 13.134,29.277 29.278,29.277 h 134.885 c 4.142,0 7.5,-3.357 7.5,-7.5 0,-4.143 -3.358,-7.5 -7.5,-7.5 H 115.869 c -7.873,0 -14.278,-6.405 -14.278,-14.277 V 59.277 C 101.591,51.405 107.996,45 115.869,45 h 11.641 l 2.687,7.156 c 4.323,11.516 15.491,19.253 27.792,19.253 h 107.068 c 12.3,0 23.469,-7.737 27.792,-19.253 L 295.535,45 h 11.642 c 7.873,0 14.277,6.405 14.277,14.277 v 52.696 c 0,4.143 3.358,7.501 7.5,7.501 z"
       id="path6" />
    <path
       d="m 307.177,483.266 c 16.144,0 29.277,-13.134 29.277,-29.277 v -92.133 c 0,-4.143 -3.358,-7.5 -7.5,-7.5 -4.142,0 -7.5,3.357 -7.5,7.5 v 92.133 c 0,7.873 -6.405,14.277 -14.277,14.277 h -24.46 c -4.142,0 -7.5,3.357 -7.5,7.5 0,4.143 3.358,7.5 7.5,7.5 z"
       id="path8" />
    <path
       d="m 253.328,42.158 c 4.142,0 7.5,-3.357 7.5,-7.5 0,-4.143 -3.358,-7.5 -7.5,-7.5 h -79.316 c -4.142,0 -7.5,3.357 -7.5,7.5 0,4.143 3.358,7.5 7.5,7.5 z"
       id="path10" />
    <path
       d="m 431.07,206.112 c 0,-11.592 -2.615,-22.778 -7.54,-32.905 l 7.422,-7.422 c 9.618,-9.619 9.618,-25.271 -10e-4,-34.891 -9.619,-9.616 -25.27,-9.618 -34.89,0.001 l -7.487,7.487 c -21.469,-10.323 -47.28,-10.213 -68.901,1.584 -3.636,1.984 -4.976,6.54 -2.992,10.176 1.984,3.636 6.539,4.976 10.176,2.992 23.321,-12.727 52.74,-8.485 71.539,10.314 11.396,11.396 17.672,26.547 17.672,42.663 0,16.116 -6.276,31.269 -17.672,42.664 l -32.095,32.095 -35.205,-35.205 c -2.929,-2.928 -7.678,-2.928 -10.606,0 -2.929,2.93 -2.929,7.678 0,10.607 l 37.213,37.212 -10.572,31.223 c -0.549,1.62 -1.83,2.142 -2.545,2.309 -0.714,0.166 -2.096,0.266 -3.305,-0.943 L 235.771,220.564 c -1.209,-1.209 -1.11,-2.59 -0.943,-3.305 0.167,-0.715 0.689,-1.996 2.309,-2.545 l 35.637,-12.067 c 1.092,-0.369 2.083,-0.985 2.898,-1.8 l 28.344,-28.345 c 2.929,-2.93 2.929,-7.678 0,-10.607 -2.929,-2.928 -7.678,-2.928 -10.606,0 l -27.105,27.106 -33.977,11.505 c -6.112,2.069 -10.638,7.057 -12.106,13.341 -1.468,6.284 0.38,12.761 4.943,17.324 l 29.974,29.974 c -10.269,12.714 -9.501,31.444 2.309,43.255 6.317,6.316 14.614,9.475 22.912,9.475 7.215,0 14.429,-2.391 20.342,-7.167 l 29.974,29.974 c 3.532,3.532 8.21,5.438 13.059,5.438 1.415,0 2.845,-0.163 4.265,-0.494 6.284,-1.468 11.271,-5.993 13.341,-12.105 l 11.506,-33.978 36.159,-36.159 c 14.228,-14.23 22.064,-33.149 22.064,-53.272 z m -24.402,-64.61 c 3.77,-3.771 9.907,-3.771 13.677,-0.001 3.771,3.771 3.771,9.907 0,13.678 l -4.95,4.95 c -1.964,-2.538 -4.084,-4.98 -6.391,-7.287 -2.307,-2.307 -4.747,-4.432 -7.291,-6.385 z M 268.054,293.793 c -5.95,-5.95 -6.68,-15.171 -2.195,-21.927 l 24.122,24.123 c -6.755,4.486 -15.977,3.756 -21.927,-2.196 z"
       id="path12" />
    <path
       d="m 297.17,222.347 c -2.928,2.93 -2.928,7.678 10e-4,10.606 l 3.863,3.862 c 1.464,1.465 3.384,2.196 5.303,2.196 1.919,0 3.839,-0.732 5.304,-2.197 2.928,-2.93 2.928,-7.678 -0.001,-10.606 l -3.863,-3.862 c -2.929,-2.93 -7.678,-2.928 -10.607,0.001 z"
       id="path14" />
    <path
       d="m 268.527,105.413 c -15.895,-1.43 -31.286,3.511 -43.331,13.891 -12.044,10.381 -19.195,24.872 -20.136,40.804 -0.244,4.136 2.91,7.686 7.045,7.93 0.151,0.009 0.3,0.013 0.449,0.013 3.94,0 7.245,-3.074 7.48,-7.059 0.699,-11.846 6.01,-22.616 14.955,-30.324 8.944,-7.71 20.379,-11.372 32.201,-10.314 4.122,0.365 7.77,-2.676 8.139,-6.802 0.369,-4.126 -2.677,-7.77 -6.802,-8.139 z"
       id="path16" />
    <path
       d="m 267.958,135.53 c -8.336,-1.379 -16.786,0.991 -23.176,6.499 -6.391,5.508 -9.981,13.513 -9.85,21.963 0.063,4.103 3.409,7.384 7.497,7.384 0.04,0 0.08,0 0.119,-0.001 4.142,-0.064 7.447,-3.474 7.383,-7.615 -0.062,-3.992 1.631,-7.771 4.645,-10.368 3.013,-2.597 6.999,-3.711 10.939,-3.063 4.086,0.677 7.947,-2.089 8.622,-6.177 0.673,-4.087 -2.092,-7.947 -6.179,-8.622 z"
       id="path18" />
    <path
       d="m 456.434,293.32 c -0.369,-4.125 -4.012,-7.176 -8.139,-6.802 -4.125,0.369 -7.171,4.013 -6.802,8.138 1.058,11.82 -2.605,23.257 -10.314,32.201 -7.708,8.945 -18.478,14.256 -30.325,14.955 -4.135,0.244 -7.289,3.794 -7.045,7.93 0.235,3.984 3.54,7.058 7.48,7.058 0.148,0 0.298,-0.004 0.449,-0.013 15.933,-0.94 30.424,-8.092 40.804,-20.137 10.381,-12.046 15.315,-27.433 13.892,-43.33 z"
       id="path20" />
    <path
       d="m 398.302,326.919 c 8.285,-10e-4 16.106,-3.576 21.516,-9.854 5.508,-6.392 7.877,-14.839 6.5,-23.177 -0.676,-4.087 -4.54,-6.857 -8.622,-6.177 -4.087,0.675 -6.853,4.535 -6.178,8.622 0.651,3.938 -0.466,7.926 -3.063,10.938 -2.597,3.015 -6.379,4.686 -10.367,4.645 -4.105,-0.039 -7.551,3.24 -7.615,7.383 -0.064,4.142 3.241,7.551 7.383,7.615 0.149,0.003 0.297,0.005 0.446,0.005 z"
       id="path22" />
  </g>
</svg>
