<?xml version="1.0" encoding="UTF-8" standalone="no"?>
<svg
   xmlns:dc="http://purl.org/dc/elements/1.1/"
   xmlns:cc="http://creativecommons.org/ns#"
   xmlns:rdf="http://www.w3.org/1999/02/22-rdf-syntax-ns#"
   xmlns:svg="http://www.w3.org/2000/svg"
   xmlns="http://www.w3.org/2000/svg"
   xmlns:sodipodi="http://sodipodi.sourceforge.net/DTD/sodipodi-0.dtd"
   xmlns:inkscape="http://www.inkscape.org/namespaces/inkscape"
   height="795.99908pt"
   viewBox="0 0 795.297 797.12889"
   width="795.297pt"
   version="1.1"
   id="svg18"
   sodipodi:docname="44.svg"
   inkscape:version="1.0.2 (e86c870879, 2021-01-15, custom)">
  <metadata
     id="metadata24">
    <rdf:RDF>
      <cc:Work
         rdf:about="">
        <dc:format>image/svg+xml</dc:format>
        <dc:type
           rdf:resource="http://purl.org/dc/dcmitype/StillImage" />
        <dc:title></dc:title>
      </cc:Work>
    </rdf:RDF>
  </metadata>
  <defs
     id="defs22" />
  <sodipodi:namedview
     pagecolor="#ffffff"
     bordercolor="#666666"
     borderopacity="1"
     objecttolerance="10"
     gridtolerance="10"
     guidetolerance="10"
     inkscape:pageopacity="0"
     inkscape:pageshadow="2"
     inkscape:window-width="1366"
     inkscape:window-height="716"
     id="namedview20"
     showgrid="false"
     lock-margins="true"
     fit-margin-top="150"
     fit-margin-left="150"
     fit-margin-right="150"
     fit-margin-bottom="150"
     inkscape:zoom="0.79653425"
     inkscape:cx="529.72991"
     inkscape:cy="530.66667"
     inkscape:window-x="-8"
     inkscape:window-y="-8"
     inkscape:window-maximized="1"
     inkscape:current-layer="svg18" />
  <path
     d="m 637.86091,422.21291 c -30.87109,0 -56,-25.12891 -56,-56 v -8 h -80 v -208 h -267.3125 l -84.6875,84.6875 v 379.3125 h 322.77735 c 14.75,12.72656 31.52734,23.40625 50.07031,31.35156 l 3.15234,1.35157 3.15235,-1.35157 c 70.98437,-30.41406 116.84765,-99.97656 116.84765,-177.19922 v -46.15234 z m -460.6875,-192 52.6875,-52.6875 v 52.6875 z m 20.6875,16 h 48 v -48 h 208 v 80 h -256 z m -32,0 h 16 v 48 h 288 v -112 h -224 v -16 h 240 v 192 h -16 v 8 c 0,30.87109 -25.1289,56 -56,56 h -8 v 46.15234 c 0,49.09375 18.59375,95.03907 50.32813,129.84766 H 165.86091 Z m 464,222.15234 c 0,69.67188 -40.70312,132.52735 -104,161.11329 -63.29687,-28.57813 -104,-91.44141 -104,-161.11329 V 437.7715 c 33.32032,-3.69531 59.85547,-30.23046 63.55078,-63.55078 h 80.89063 c 3.69531,33.32032 30.23047,59.85547 63.55078,63.55078 v 30.59375 z m 0,0"
     id="path2" />
  <path
     d="m 560.30232,474.15041 20.91016,-48.79297 -14.70313,-6.29687 -20.17578,47.08203 c -6.35156,-2.50391 -13.23828,-3.92969 -20.47266,-3.92969 -30.87109,0 -56,25.12891 -56,56 0,30.87109 25.12891,56 56,56 30.8711,0 56,-25.12891 56,-56 0,-17.88672 -8.46484,-33.80078 -21.55859,-44.0625 z m -34.44141,84.0625 c -22.05468,0 -40,-17.94531 -40,-40 0,-22.05469 17.94532,-40 40,-40 4.99219,0 9.72657,1.03125 14.13672,2.71094 l -17.70312,41.29687 -16,-10.66406 -8.875,13.3125 32,21.33594 24.26562,-56.625 c 7.48828,7.27344 12.17578,17.40234 12.17578,28.63281 0,22.05469 -17.94531,40 -40,40 z m 0,0"
     id="path4" />
  <path
     d="m 181.86091,582.21291 h 208 v -144 h -208 z m 16,-128 h 176 v 112 h -176 z m 0,0"
     id="path6" />
  <path
     d="m 213.86091,310.21291 h 176 v 16 h -176 z m 0,0"
     id="path8" />
  <path
     d="m 181.86091,310.21291 h 16 v 16 h -16 z m 0,0"
     id="path10" />
  <path
     d="m 181.86091,342.21291 h 208 v 16 h -208 z m 0,0"
     id="path12" />
  <path
     d="m 181.86091,374.21291 h 208 v 16 h -208 z m 0,0"
     id="path14" />
  <path
     d="m 181.86091,406.21291 h 208 v 16 h -208 z m 0,0"
     id="path16" />
</svg>
