<svg id="Capa_1" enable-background="new 0 0 512.005 512.005" height="512" viewBox="0 0 512.005 512.005" width="512" xmlns="http://www.w3.org/2000/svg" fill="#f0f0f0"><g><path d="m82.139 242.947c-23.303 29.104-36.137 66.059-36.137 104.058 0 90.981 74.019 165 165 165s165-74.019 165-165c0-38-12.834-74.955-36.137-104.058l-128.862-160.941zm263.864 104.058c0 74.439-60.561 135-135 135s-135-60.561-135-135c0-31.209 10.496-61.505 29.555-85.307l105.445-131.693 105.445 131.694c19.058 23.801 29.555 54.097 29.555 85.306z"/><path d="m136.003 347.005h-30c0 57.897 47.103 105 105 105v-30c-41.356 0-75-33.645-75-75z"/><path d="m466.003 121.005c0-17.22-5.654-33.387-16.352-46.759l-58.648-74.246-58.648 74.247c-10.697 13.371-16.352 29.539-16.352 46.759 0 41.355 33.645 75 75 75s75-33.646 75-75.001zm-120 0c0-10.347 3.389-20.045 9.801-28.047l35.199-44.56 35.199 44.56c6.412 8.001 9.801 17.699 9.801 28.047 0 24.813-20.187 45-45 45s-45-20.187-45-45z"/></g></svg>
