<?xml version="1.0" encoding="iso-8859-1"?>
<!-- Generator: Adobe Illustrator 22.1.0, SVG Export Plug-In . SVG Version: 6.00 Build 0)  -->
<svg xmlns="http://www.w3.org/2000/svg" xmlns:xlink="http://www.w3.org/1999/xlink" version="1.1" id="Layer_1_1_" x="0px" y="0px" viewBox="0 0 64 64" style="enable-background:new 0 0 64 64;" xml:space="preserve" width="512" height="512" fill="#f0f0f0">
<g>
	<rect x="28" y="5" width="8" height="2"/>
	<rect x="38" y="5" width="2" height="2"/>
	<rect x="24" y="5" width="2" height="2"/>
	<rect x="29" y="57" width="6" height="2"/>
	<path d="M59.403,23c-0.679,0-1.345-0.233-1.874-0.657l-2.809-2.247C53.838,19.389,52.729,19,51.597,19H50V6c0-2.757-2.243-5-5-5H19   c-2.757,0-5,2.243-5,5v14h1c6.28,0,11.438,4.851,11.949,11H26c-1.654,0-3,1.346-3,3c0,1.623,1.297,2.941,2.909,2.991   C23.975,41.231,19.755,44,15,44C8.383,44,3,38.617,3,32c0-5.593,3.796-10.396,9.229-11.679l-0.459-1.946   C5.429,19.873,1,25.476,1,32c0,7.382,5.747,13.433,13,13.949V58c0,2.757,2.243,5,5,5h26c2.757,0,5-2.243,5-5V43.514l2.137-0.356   c0.841-0.14,1.637-0.496,2.302-1.028l3.091-2.473C58.059,39.233,58.725,39,59.403,39H63V23H59.403z M19,3h26c1.654,0,3,1.346,3,3v3   H16V6C16,4.346,17.346,3,19,3z M16,11h32v8h-2v-6H18v5.34c-0.653-0.143-1.317-0.256-2-0.305V11z M28.07,37h19.508   c-0.193,0.189-0.442,0.323-0.725,0.374L37,39.166v2.654c0,1.753,1.427,3.18,3.181,3.18h0.639c0.176,0,0.353-0.015,0.522-0.043   L44,44.514V49H20v-3.926C23.66,43.681,26.624,40.791,28.07,37z M45,61H19c-1.654,0-3-1.346-3-3v-3h32v3C48,59.654,46.654,61,45,61z    M48,53H16v-7.04c0.68-0.048,1.347-0.149,2-0.291V51h28v-6.82l2-0.333V53z M61,37h-1.597c-1.132,0-2.241,0.389-3.124,1.096   l-3.091,2.473c-0.398,0.319-0.876,0.533-1.38,0.617l-10.798,1.799C40.947,42.995,40.884,43,40.819,43h-0.639   C39.529,43,39,42.471,39,41.82v-0.985l8.211-1.493C48.827,39.047,50,37.642,50,36v-1H26c-0.552,0-1-0.449-1-1s0.448-1,1-1h8h10h4   v-2h-4H34c-0.552,0-1-0.449-1-1s0.448-1,1-1h2h12v-2H36c-0.552,0-1-0.449-1-1s0.448-1,1-1h2h10v-2H38c-0.552,0-1-0.449-1-1   s0.448-1,1-1h4v-2h-4c-1.654,0-3,1.346-3,3c0,0.395,0.081,0.77,0.22,1.116C33.945,23.461,33,24.617,33,26   c0,0.395,0.081,0.77,0.22,1.116C31.945,27.461,31,28.617,31,30c0,0.352,0.072,0.686,0.184,1h-2.233   C28.559,25.478,24.959,20.832,20,18.928V15h24v6h7.597c0.679,0,1.345,0.233,1.874,0.657l2.809,2.247   C57.162,24.611,58.271,25,59.403,25H61V37z"/>
	<path d="M19,28v-2c0-2.206-1.794-4-4-4s-4,1.794-4,4v4.184C9.839,30.598,9,31.698,9,33v6c0,1.654,1.346,3,3,3h6   c1.654,0,3-1.346,3-3v-6c0-1.654-1.346-3-3-3h-5v-4c0-1.103,0.897-2,2-2s2,0.897,2,2v2H19z M19,33v6c0,0.551-0.448,1-1,1h-6   c-0.552,0-1-0.449-1-1v-6c0-0.551,0.448-1,1-1h6C18.552,32,19,32.449,19,33z"/>
</g>
</svg>
